<svg xmlns:mydata="http://www.w3.org/2000/svg" mydata:contrastcolor="000000"
     mydata:template="BlackAndHighlightColorHex2" mydata:presentation="2.5" mydata:layouttype="undefined"
     mydata:specialfontid="undefined" mydata:id1="576" mydata:id2="507" mydata:companyname="bro.fans"
     mydata:companytagline="" version="1.1" xmlns="http://www.w3.org/2000/svg"
     xmlns:xlink="http://www.w3.org/1999/xlink" viewBox="100 275 500 100" x="0px" y="0px" style="width: 250px; height: 75px;">
    <g fill="none" fill-rule="none" stroke="none" stroke-width="1" stroke-linecap="butt" stroke-linejoin="miter"
       stroke-miterlimit="10" stroke-dasharray="" stroke-dashoffset="0" font-family="none" font-weight="none"
       font-size="none" text-anchor="none" style="mix-blend-mode: normal">
        <g data-paper-data="{&quot;isGlobalGroup&quot;:true,&quot;bounds&quot;:{&quot;x&quot;:151.02985409534546,&quot;y&quot;:114.99999999999997,&quot;width&quot;:247.94029180930914,&quot;height&quot;:240.00000000000003}}">
            <g data-paper-data="{&quot;isPrimaryText&quot;:true}" fill="#000000" fill-rule="nonzero">
                <path d="M159.84605,291.08612c-5.25852,0.08764 -6.57315,0.78878 -7.88779,4.82031c-1.0517,3.50568 -1.22699,37.59844 -0.43821,50.74475c0.26293,4.55739 2.62926,7.01136 9.90355,7.97543c7.62486,0.96406 17.87898,0 21.38466,-5.08324c5.43381,-8.15071 -4.3821,-25.50384 -9.20242,-27.51961c0,0 8.326,-9.72827 7.44958,-19.80711c-0.87642,-10.16648 -18.84304,-11.65639 -21.20938,-11.13054zM170.01253,304.75829v0c-2.10341,14.3733 -10.51705,13.23395 -8.58892,-0.26293c0.61349,-4.82031 9.3777,-4.73267 8.58892,0.26293zM171.23952,339.81511c0.61349,4.90796 -8.67656,4.90796 -9.29006,0c-1.48992,-13.58452 7.80014,-14.28566 9.29006,0z"
                      data-paper-data="{&quot;glyphName&quot;:&quot;B&quot;,&quot;glyphIndex&quot;:0,&quot;firstGlyphOfWord&quot;:true,&quot;word&quot;:1}"></path>
                <path d="M186.40159,299.67505c-0.43821,3.85625 0.08764,22.26108 0.08764,36.54674c0,12.88338 -1.75284,18.14191 5.95966,18.7554c5.87202,0.35057 5.43381,-5.52145 5.25852,-11.91932c-0.43821,-10.69233 1.48992,-14.46094 5.43381,-1.40227c1.75284,5.69673 3.3304,12.0946 6.83608,12.53281c5.69673,0.61349 8.76421,-0.35057 9.02713,-3.85625c0.43821,-3.59332 -8.67656,-16.47671 -9.99119,-18.93069c-1.40227,-2.54162 -1.48992,-3.50568 -0.52585,-4.11918c2.01577,-0.78878 3.85625,-1.84048 5.17088,-3.3304c2.89219,-3.41804 4.03153,-9.02713 4.03153,-14.46094c0.08764,-13.40924 -6.22259,-18.84304 -16.82728,-18.7554c-9.02713,0.17528 -13.40924,-0.96406 -14.46094,8.93949zM200.86253,301.07732v0c8.15071,-2.62926 8.58892,15.33736 2.10341,16.12614c-3.68097,0.35057 -5.17088,-0.26293 -5.43381,-5.43381c-0.26293,-5.25852 0.61349,-10.42941 3.3304,-10.69233z"
                      data-paper-data="{&quot;glyphName&quot;:&quot;R&quot;,&quot;glyphIndex&quot;:1,&quot;word&quot;:1}"></path>
                <path d="M241.44081,294.85473v0c-4.73267,-4.9956 -11.91932,-4.9956 -16.47671,0c-4.11918,4.46975 -5.17088,14.89915 -5.87202,25.59148c-1.75284,23.751 6.31023,34.53097 14.02273,34.53097c7.80014,0 15.95086,-10.77997 14.19801,-34.53097c-0.87642,-10.69233 -1.75284,-21.12174 -5.87202,-25.59148zM234.07887,331.83968v0c-5.95966,0.17528 -3.68097,-17.44077 -1.92813,-20.85881c4.9956,-9.29006 8.06307,20.77117 1.92813,20.85881z"
                      data-paper-data="{&quot;glyphName&quot;:&quot;O&quot;,&quot;glyphIndex&quot;:2,&quot;word&quot;:1}"></path>
                <path d="M255.37589,342.53201v0c-3.3304,0 -6.0473,2.7169 -6.0473,6.13494c0,3.3304 2.7169,6.0473 6.0473,6.0473c3.41804,0 6.13494,-2.7169 6.13494,-6.0473c0,-3.41804 -2.7169,-6.13494 -6.13494,-6.13494z"
                      data-paper-data="{&quot;glyphName&quot;:&quot;.&quot;,&quot;glyphIndex&quot;:3,&quot;word&quot;:1}"></path>
                <path d="M264.84124,293.71539c-2.62926,4.3821 -1.48992,52.40995 1.13935,59.5966c0.87642,2.54162 11.91932,2.45398 12.26989,-1.92813c0.43821,-5.25852 -7.01136,-23.92628 -0.61349,-24.8027c7.7125,-1.40227 10.16648,-2.45398 9.90355,-7.27429c-0.26293,-4.9956 -2.01577,-6.83608 -9.64063,-6.22259c-5.17088,0.35057 -5.78438,-4.03153 -3.68097,-5.87202c3.68097,-3.15511 14.28566,1.6652 17.17784,-3.41804c1.6652,-2.97983 2.45398,-8.58892 -1.92813,-11.74404c-4.03153,-2.7169 -21.91052,-3.15511 -24.62742,1.6652z"
                      data-paper-data="{&quot;glyphName&quot;:&quot;F&quot;,&quot;glyphIndex&quot;:4,&quot;word&quot;:1}"></path>
                <path d="M306.29593,290.91084c-7.62486,0 -10.60469,2.97983 -11.83168,13.14631c-1.13935,10.16648 -4.3821,42.33112 -2.89219,47.502c1.6652,5.08324 11.83168,3.76861 12.79574,0.78878c0.61349,-1.84048 0.26293,-14.98679 0.43821,-17.61605c0.17528,-4.82031 6.39787,-5.08324 6.39787,0c0,3.85625 -0.43821,15.51264 1.92813,18.14191c2.36634,2.45398 11.13054,3.24276 12.26989,-0.96406c1.13935,-4.11918 -3.15511,-44.52217 -4.20682,-51.35825c-1.13935,-6.6608 -6.83608,-9.64063 -14.89915,-9.64063zM311.37917,316.76525c0,4.82031 -6.57315,4.82031 -6.57315,0c0,-13.40924 6.57315,-14.19801 6.57315,0z"
                      data-paper-data="{&quot;glyphName&quot;:&quot;A&quot;,&quot;glyphIndex&quot;:5,&quot;word&quot;:1}"></path>
                <path d="M331.27392,291.8749c-5.69673,1.48992 -3.3304,7.09901 -3.3304,13.40924c0,6.31023 0.87642,44.08396 1.22699,47.32671c0.35057,3.24276 9.72827,2.62926 10.51705,1.22699c1.0517,-1.22699 -2.54162,-26.90611 1.31463,-27.25668c3.68097,-0.43821 7.27429,26.64319 10.51705,27.43197c3.15511,0.61349 8.23835,0.43821 9.72827,-2.01577c1.48992,-2.62926 2.7169,-56.8797 0.87642,-59.33368c-2.01577,-2.62926 -11.56875,-2.36634 -12.62046,-0.52585c-0.78878,2.01577 4.29446,31.4635 2.19105,32.25228c-2.19105,0.87642 -9.99119,-29.27245 -12.0946,-31.98935c-2.10341,-2.7169 -8.41364,-0.52585 -8.326,-0.52585z"
                      data-paper-data="{&quot;glyphName&quot;:&quot;N&quot;,&quot;glyphIndex&quot;:6,&quot;word&quot;:1}"></path>
                <path d="M386.22549,307.73812c0.08764,2.80455 0,6.39787 0.26293,8.15071c0.35057,2.36634 8.50128,5.08324 11.0429,3.85625c2.45398,-1.22699 1.13935,-19.45654 0.61349,-24.45214c-0.52585,-4.82031 -18.66776,-4.46975 -25.06563,-3.76861c-6.48551,0.87642 -8.326,5.52145 -8.23835,15.425c0.08764,9.81591 0.08764,14.54858 2.97983,16.56435c2.89219,1.84048 17.26549,6.39787 18.49247,8.41364c1.22699,2.10341 2.01577,9.46534 -2.45398,10.51705c-4.3821,1.13935 -4.82031,-1.57756 -5.25852,-3.59332c-0.35057,-1.92813 1.6652,-5.08324 -0.61349,-6.22259c-2.19105,-1.0517 -9.81591,-1.92813 -10.77997,-0.08764c-0.87642,1.84048 -0.78878,14.54858 -0.08764,18.22955c0.61349,3.59332 4.90796,4.46975 15.86321,4.11918c10.77997,-0.52585 14.81151,-0.26293 15.16208,-8.06307c0.35057,-7.80014 0,-16.38907 -0.96406,-19.63182c-1.0517,-3.3304 -20.07003,-9.02713 -20.77117,-13.7598c-0.87642,-4.73267 -1.0517,-9.11477 2.45398,-10.60469c3.76861,-1.48992 7.09901,0.78878 7.36193,4.90796z"
                      data-paper-data="{&quot;glyphName&quot;:&quot;S&quot;,&quot;glyphIndex&quot;:7,&quot;lastGlyphOfWord&quot;:true,&quot;word&quot;:1}"></path>
            </g>
        </g>
    </g>
</svg>