<svg version="1.1" xmlns="http://www.w3.org/2000/svg" xmlns:xlink="http://www.w3.org/1999/xlink" class="thumbnail-icon" viewBox="25 -1.1920928955078125e-7 150.61013793945312 250.00001525878906" x="0px" y="0px" style="width: 100px; height: 200px;"><g data-paper-data="{&quot;fillRule&quot;:&quot;evenodd&quot;,&quot;isIcon&quot;:&quot;true&quot;,&quot;iconType&quot;:&quot;icon&quot;,&quot;rawIconId&quot;:&quot;6b4e7621-0314-4a45-a3fe-df8bc399f186&quot;,&quot;selectedEffects&quot;:{&quot;container&quot;:&quot;&quot;,&quot;transformation&quot;:&quot;&quot;,&quot;pattern&quot;:&quot;&quot;},&quot;isDetailed&quot;:false,&quot;bounds&quot;:{&quot;x&quot;:223.3093639167107,&quot;y&quot;:114.99999999999997,&quot;width&quot;:103.38127216657864,&quot;height&quot;:150.2529011832868},&quot;iconStyle&quot;:&quot;standalone&quot;}"><path d="M34.80772,34.14294c6.91588,-21.20947 22.11388,-32.42524 45.59401,-33.64733c10.39717,-1.40426 22.67828,0.17572 36.84345,4.73845c10.04114,3.23591 18.51362,7.77482 25.41744,13.61717c11.41964,9.66464 17.74458,21.63228 18.97481,35.90294c1.12981,12.99262 -1.27679,26.23334 -7.21981,39.72229c2.34629,4.10229 4.55762,8.60298 6.63398,13.50206c10.9184,25.76128 10.30537,47.74764 -1.83909,65.9591c-8.68538,12.59355 -22.24665,20.65233 -40.68383,24.17634c-11.39601,2.17822 -23.40089,2.46969 -36.01462,0.87442c-13.95325,-1.84922 -25.07203,-6.29466 -33.35635,-13.33632c-10.41596,-8.85355 -16.04576,-20.59306 -16.88941,-35.21853c-0.87234,-14.53781 -1.21296,-35.01486 -1.02185,-61.43117c0.2125,-29.39017 1.31774,-47.41476 3.31543,-54.07376c0.07878,-0.26283 0.16083,-0.52463 0.24586,-0.78567zM80.88984,7.28461c-20.44613,1.02602 -33.65046,10.68252 -39.61299,28.96785c-0.06835,0.20982 -0.13432,0.42039 -0.19791,0.63199c-1.8111,6.03699 -2.82054,23.426 -3.02832,52.16706c-0.18992,26.26431 0.14673,46.58918 1.00994,60.97459c0.73246,12.69791 5.56711,22.84503 14.50395,30.44136c7.26657,6.17657 17.21445,10.1017 29.84362,11.7754c11.87294,1.50155 23.15399,1.23083 33.84316,-0.81218c16.6104,-3.17495 28.73028,-10.29368 36.35966,-21.35617c10.74784,-16.11784 11.13978,-35.93145 1.17583,-59.44085c-2.21902,-5.23553 -4.59068,-9.97478 -7.11498,-14.21774c-0.07029,-0.11809 -0.13313,-0.24005 -0.18867,-0.36588c-0.05555,-0.12583 -0.1032,-0.25449 -0.14311,-0.38599c-0.03991,-0.13149 -0.07178,-0.26507 -0.09545,-0.40043c-0.02368,-0.13536 -0.03916,-0.27177 -0.04631,-0.40907c-0.0073,-0.1373 -0.00611,-0.27445 0.00328,-0.4116c0.00938,-0.13715 0.0271,-0.27326 0.05301,-0.40817c0.02606,-0.13507 0.06001,-0.26805 0.10201,-0.39894c0.04214,-0.1309 0.09188,-0.25866 0.14936,-0.3836c5.97265,-12.95773 8.42354,-25.59395 7.35264,-37.90866c-1.0698,-12.40977 -6.60033,-22.84271 -16.59158,-31.29851c-6.21866,-5.26273 -13.92145,-9.37381 -23.10837,-12.33323c-13.24662,-4.26788 -24.57145,-5.75306 -33.9745,-4.45552c-0.09769,0.0134 -0.19582,0.02383 -0.29425,0.02829zM67.7699,44.89143c2.68046,-8.22007 5.36091,-9.64965 16.08274,-9.82834c4.82482,-1.07218 41.45774,1.96567 43.24471,22.69454c1.78697,20.55017 -15.18926,40.38556 -15.18926,40.38556c9.82834,4.11003 29.84242,39.49207 18.7632,56.1109c-7.14789,10.36443 -28.05545,12.3301 -43.6021,10.36443c-14.83186,-1.96567 -19.65669,-6.96919 -20.19278,-16.26144c-1.60827,-26.80457 -1.25088,-96.31776 0.89349,-103.46565zM87.06919,62.40375c-3.93134,27.51936 13.22359,29.84242 17.51232,0.53609c1.60827,-10.18574 -16.26144,-10.36443 -17.51232,-0.53609zM88.14137,134.4187c1.25088,10.00704 20.19278,10.00704 18.9419,0c-3.03785,-29.12764 -21.97975,-27.69806 -18.9419,0z" fill-rule="evenodd"></path></g></svg>