<?xml version="1.0" standalone="no"?>
<!DOCTYPE svg PUBLIC "-//W3C//DTD SVG 20010904//EN"
 "http://www.w3.org/TR/2001/REC-SVG-20010904/DTD/svg10.dtd">
<svg version="1.0" xmlns="http://www.w3.org/2000/svg"
 width="200.000000pt" height="200.000000pt" viewBox="0 0 200.000000 200.000000"
 preserveAspectRatio="xMidYMid meet">
<metadata>
Created by potrace 1.14, written by Peter Selinger 2001-2017
</metadata>
<g transform="translate(0.000000,200.000000) scale(0.100000,-0.100000)"
fill="#000000" stroke="none">
<path d="M724 1983 c-151 -28 -267 -115 -330 -247 -59 -125 -67 -207 -68 -751
0 -403 8 -547 34 -625 56 -167 185 -280 377 -331 109 -29 345 -34 458 -9 202
43 325 117 411 246 70 106 89 176 88 329 0 126 -25 224 -96 378 -37 78 -40 90
-29 114 32 70 58 201 59 294 1 168 -45 286 -154 394 -173 172 -481 258 -750
208z m325 -68 c76 -15 207 -66 271 -104 72 -43 159 -130 189 -190 46 -89 65
-229 46 -336 -9 -49 -38 -148 -59 -196 -14 -34 -14 -38 14 -91 154 -293 159
-548 13 -730 -60 -74 -202 -156 -303 -175 -14 -2 -43 -8 -65 -13 -41 -9 -313
-7 -350 3 -11 3 -40 10 -64 17 -156 42 -266 139 -316 280 -24 68 -30 188 -29
605 0 523 8 624 56 720 79 157 219 226 448 220 63 -1 130 -6 149 -10z"/>
<path d="M760 1637 c-43 -15 -69 -63 -78 -145 -13 -109 -7 -973 6 -1019 27
-91 131 -128 332 -121 182 8 272 46 311 132 54 119 -26 374 -156 500 -19 19
-35 37 -35 41 0 3 11 21 24 38 70 94 128 262 119 350 -9 106 -103 183 -263
219 -82 19 -214 21 -260 5z m267 -202 c30 -21 36 -57 18 -126 -51 -195 -167
-194 -166 2 0 78 10 102 49 123 35 20 72 20 99 1z m-18 -587 c54 -50 91 -207
57 -241 -43 -42 -146 -24 -167 30 -14 36 -10 129 8 173 24 62 62 76 102 38z"/>
</g>
</svg>
